PathFileType	4	(X/Y/Z)	 s07c0302.trc
DataRate	CameraRate	NumFrames	NumMarkers	Units	OrigDataRate	OrigDataStartFrame	OrigNumFrames
200	200	5	48	mm	200	751	2000
Frame#	Time	racr			lacr			c7			jug			rlel			rdr			llel			ldr			s2			lic			ric			lasi			rasi			rpsi			lpsi			rgt			lgt			rth1			rth2			rth3			rth4			rlfc			rmfc			rsh1			rsh2			rsh3			rsh4			rlmal			rcal			rtoe			rmt5			lth1			lth2			lth4			lth3			llfc			lmfc			lsh1			lsh2			lsh3			lsh4			llmal			lcal			ltoe			lmt5			SBIKE			LBIKE			RBIKE			
		X1	Y1	Z1	X2	Y2	Z2	X3	Y3	Z3	X4	Y4	Z4	X5	Y5	Z5	X6	Y6	Z6	X7	Y7	Z7	X8	Y8	Z8	X9	Y9	Z9	X10	Y10	Z10	X11	Y11	Z11	X12	Y12	Z12	X13	Y13	Z13	X14	Y14	Z14	X15	Y15	Z15	X16	Y16	Z16	X17	Y17	Z17	X18	Y18	Z18	X19	Y19	Z19	X20	Y20	Z20	X21	Y21	Z21	X22	Y22	Z22	X23	Y23	Z23	X24	Y24	Z24	X25	Y25	Z25	X26	Y26	Z26	X27	Y27	Z27	X28	Y28	Z28	X29	Y29	Z29	X30	Y30	Z30	X31	Y31	Z31	X32	Y32	Z32	X33	Y33	Z33	X34	Y34	Z34	X35	Y35	Z35	X36	Y36	Z36	X37	Y37	Z37	X38	Y38	Z38	X39	Y39	Z39	X40	Y40	Z40	X41	Y41	Z41	X42	Y42	Z42	X43	Y43	Z43	X44	Y44	Z44	X45	Y45	Z45	X46	Y46	Z46	X47	Y47	Z47	X48	Y48	Z48	
751	3.7550	763.814100	1376.538676	-13.175324	791.662311	1402.649210	-319.138377	777.284633	1437.234879	-164.539024	700.883989	1304.277169	-188.685489	525.284370	1108.471252	50.139591	719.708874	922.929452	-47.515294	605.915136	1156.742497	-496.505521	730.646600	910.571600	-401.250139	186.675439	1329.163173	-298.793917	376.593222	1347.211633	-405.176320	323.246318	1324.744128	-118.364417	381.113417	1262.483682	-382.217197	338.812367	1277.290229	-137.123744	211.411581	1361.694362	-242.009895	244.742522	1368.818656	-345.661502	245.289395	1219.301146	-93.078799	291.762384	1199.382822	-452.465355	341.673078	1088.841273	-72.136148	402.852315	1025.342976	-73.272606	425.635049	943.511372	-68.629368	433.700098	1042.727054	-84.824340	484.798869	816.595569	-91.135187	482.204134	799.825089	-195.326978	407.070181	695.352364	-68.354709	382.178538	611.925188	-85.342776	318.740538	551.131779	-83.981331	396.841679	606.730711	-123.938386	240.667923	433.356652	-83.058196	168.873596	397.866875	-110.467627	458.318288	355.957964	-113.885726	376.674224	327.381586	-45.701809	326.679551	1079.148330	-441.322783	372.660485	1005.759132	-426.028204	403.129991	1016.919140	-411.227013	376.513743	917.080811	-418.626528	389.196452	741.049612	-388.187507	368.327466	731.204151	-292.109940	270.971495	645.613620	-409.709574	220.389077	577.742678	-392.185633	139.361427	538.965773	-400.115068	224.233094	578.489978	-350.664610	28.555333	455.020873	-400.272636	-46.796597	478.560771	-362.050070	122.812110	243.232893	-355.248297	54.242694	288.379302	-416.050714	-257.730936	969.589008	-231.334327	-75.789992	83.842758	-437.572451	-82.488275	79.556662	-40.019218	
752	3.7600	764.504006	1373.759586	-13.465754	790.939747	1403.392331	-319.595627	777.197793	1435.963037	-164.420724	702.052492	1302.635630	-189.592948	524.402982	1106.700378	49.823175	719.474794	922.391913	-47.875115	605.956061	1156.868303	-496.061562	730.531807	910.344328	-401.662010	185.853136	1327.928548	-297.904139	375.649545	1346.479942	-404.300487	323.212383	1321.195757	-117.828415	379.909124	1261.805667	-382.146506	338.404796	1274.385139	-136.281700	210.559723	1359.796578	-240.655535	243.740615	1367.850976	-344.316639	244.533663	1215.747386	-92.976357	291.172308	1199.247194	-452.849231	338.927896	1083.506089	-73.244714	398.952864	1018.811809	-75.217433	420.381116	936.453266	-71.423379	430.003256	1035.852944	-86.618360	477.518053	809.481218	-94.222582	473.620011	792.767031	-198.423136	401.745934	687.366967	-69.791057	378.156416	603.324575	-86.021994	315.910444	541.479542	-83.831087	392.800211	598.111789	-124.615371	240.169350	421.729644	-81.784320	169.054892	384.453065	-109.968663	458.373429	345.718599	-114.216513	377.104853	316.086362	-45.857465	327.459526	1079.702887	-441.509772	374.759773	1006.821371	-426.497205	405.211356	1018.502561	-412.214451	380.223685	918.276691	-419.053697	396.223577	742.192657	-387.700347	374.963438	732.685683	-291.170083	275.769233	649.822989	-409.152761	223.280341	583.218512	-391.593180	141.376606	547.027697	-399.915239	227.427403	583.753039	-350.194706	28.128630	465.604639	-400.192328	-47.270518	489.406507	-361.873848	121.922052	253.784418	-355.237902	53.474054	299.020734	-415.954995	-257.889429	969.469013	-231.728392	-75.810039	83.722666	-437.582305	-82.520462	79.528550	-40.057213	
753	3.7650	765.120118	1371.485886	-13.807730	790.260037	1404.465369	-319.914390	777.120284	1435.052239	-164.320389	703.314050	1301.377964	-190.481844	523.892697	1105.252938	49.619492	719.280814	921.930664	-48.321179	606.183061	1157.121222	-495.495757	730.586705	910.177751	-402.084779	185.074235	1326.299822	-296.988113	374.593676	1345.475719	-403.330811	323.337494	1317.520127	-117.139762	378.669209	1260.831999	-381.855152	338.230309	1271.275011	-135.435356	210.558612	1357.041037	-239.939592	242.685380	1366.566750	-343.049627	243.970288	1212.034674	-92.712985	290.295054	1198.695529	-452.983523	336.409375	1078.044365	-74.331420	395.296450	1012.315570	-77.332086	415.196584	929.539862	-74.212090	426.509282	1028.956146	-88.588160	470.365533	802.252429	-97.298309	464.486454	785.925802	-201.390828	396.106517	679.189405	-71.288744	372.181950	594.675946	-88.228026	312.750287	531.805465	-84.266327	388.758528	589.214001	-125.116233	239.100167	410.562651	-80.988884	168.712869	372.520784	-109.016656	458.246367	335.474294	-114.493667	377.008966	304.929673	-46.108536	327.848840	1079.667224	-442.046269	376.379765	1007.479667	-427.098230	406.866444	1019.700440	-413.249853	383.495199	918.983800	-419.630466	403.177434	743.229934	-387.492304	382.427233	733.607351	-290.222016	280.380802	653.705209	-408.686361	226.217529	588.530494	-391.179404	143.327928	554.669292	-399.465667	230.547928	588.822284	-349.921401	28.009393	476.071488	-399.898525	-47.251770	500.169620	-361.944065	121.818620	264.507755	-355.313785	53.296995	309.739493	-415.939494	-258.003123	969.368254	-231.959371	-75.826182	83.650443	-437.592367	-82.503043	79.524698	-40.074774	
754	3.7700	765.646489	1369.491443	-14.275604	789.497984	1405.813938	-320.277351	777.054737	1434.544219	-164.309663	704.913753	1300.342009	-191.490195	523.441100	1104.024787	49.477204	719.102481	921.323671	-48.724105	606.524979	1157.431422	-494.906699	730.634521	910.028392	-402.270116	184.168484	1324.166619	-295.253505	373.419541	1344.191348	-402.552607	323.424307	1313.582168	-116.077708	377.277903	1259.639981	-381.636387	338.284429	1268.121224	-134.461958	209.545288	1354.908191	-237.588244	241.598107	1364.892882	-341.538796	243.753540	1208.221880	-92.305555	289.153910	1197.737077	-452.862601	334.304460	1072.572017	-75.735586	391.863442	1005.823746	-79.455292	410.236828	922.720951	-76.719050	423.312790	1021.938281	-90.710354	463.408910	794.820228	-100.526727	454.914555	778.414212	-203.190908	390.573978	670.726157	-73.121838	369.600775	585.961691	-88.604233	309.512742	521.996616	-84.928424	384.115284	580.824256	-126.848512	237.870765	399.710032	-80.804688	167.749054	360.986407	-108.621698	457.208986	324.233452	-115.244442	376.571824	294.121334	-46.513797	327.488017	1078.684657	-441.253092	377.654546	1007.736634	-427.739345	408.362241	1020.904793	-414.986877	386.424985	919.436897	-420.376867	409.492958	743.879783	-387.092805	388.418105	734.612482	-290.170887	285.016131	657.612503	-408.571867	229.284231	593.762161	-390.950714	145.127181	561.962251	-398.652220	233.908546	593.701989	-349.887503	28.200692	486.801090	-399.769367	-46.880797	511.019768	-362.176038	121.885045	274.357587	-353.858952	53.743075	320.828966	-416.146826	-258.043782	969.358630	-232.055180	-75.842140	83.643677	-437.605965	-82.534507	79.548625	-40.057934	
755	3.7750	766.260032	1367.696779	-14.832473	788.751266	1407.483883	-320.808749	776.969801	1434.416867	-164.410896	706.469035	1299.753384	-192.662885	523.210747	1102.761941	49.388175	719.067688	920.647546	-48.776577	606.852850	1157.783008	-494.319545	730.631365	909.708093	-401.886390	183.328113	1321.989637	-293.750845	372.093320	1342.905367	-401.897683	323.985068	1309.738001	-115.295860	375.921874	1258.377883	-381.247612	338.685849	1264.737703	-133.513470	210.704208	1350.707878	-237.989565	240.351452	1362.906616	-340.171332	243.893366	1204.318416	-91.798970	287.872667	1196.524429	-452.708563	332.438879	1067.232003	-76.960382	388.653571	999.350728	-81.499806	405.347696	915.849582	-79.102737	420.239022	1014.835773	-92.865920	456.285881	787.213786	-103.498515	446.223938	770.908060	-206.521053	385.271397	662.114709	-75.224897	364.151314	576.664238	-91.412175	306.398575	511.908341	-85.924833	379.533807	571.960563	-128.774028	236.376305	389.041768	-81.071668	166.342640	350.023996	-108.638797	456.045012	313.374303	-115.788110	375.362534	283.577277	-46.825674	327.349632	1077.708232	-442.156123	378.725454	1007.729633	-428.393431	409.326569	1021.442659	-415.978944	389.104740	919.580556	-421.235227	416.093046	744.763641	-387.142274	393.098411	735.914487	-289.843924	289.724498	661.369705	-408.516317	232.542041	598.980620	-390.893689	147.541981	569.336907	-398.526895	237.694948	598.524470	-350.400706	28.934647	497.277011	-399.829659	-45.801193	521.304539	-362.088723	123.259902	285.469360	-353.778499	55.014589	331.774823	-416.274363	-257.992382	969.380887	-232.029999	-75.844274	83.647738	-437.637193	-82.513881	79.537015	-40.064882	
